<svg width="18" height="16" viewBox="0 0 18 16" fill="none" xmlns="http://www.w3.org/2000/svg">
<path d="M8.16666 15.5C8.16666 15.1685 8.03496 14.8505 7.80054 14.6161C7.56612 14.3817 7.24818 14.25 6.91666 14.25C6.58514 14.25 6.26719 14.3817 6.03277 14.6161C5.79835 14.8505 5.66666 15.1685 5.66666 15.5H1.49999C1.27898 15.5 1.06701 15.4122 0.910734 15.2559C0.754454 15.0996 0.666656 14.8877 0.666656 14.6667V1.33333C0.666656 1.11232 0.754454 0.900358 0.910734 0.744078C1.06701 0.587797 1.27898 0.5 1.49999 0.5H5.66666C5.66666 0.831521 5.79835 1.14946 6.03277 1.38388C6.26719 1.6183 6.58514 1.75 6.91666 1.75C7.24818 1.75 7.56612 1.6183 7.80054 1.38388C8.03496 1.14946 8.16666 0.831521 8.16666 0.5H16.5C16.721 0.5 16.933 0.587797 17.0892 0.744078C17.2455 0.900358 17.3333 1.11232 17.3333 1.33333V5.91667C16.7808 5.91667 16.2509 6.13616 15.8602 6.52686C15.4695 6.91756 15.25 7.44747 15.25 8C15.25 8.55253 15.4695 9.08244 15.8602 9.47314C16.2509 9.86384 16.7808 10.0833 17.3333 10.0833V14.6667C17.3333 14.8877 17.2455 15.0996 17.0892 15.2559C16.933 15.4122 16.721 15.5 16.5 15.5H8.16666ZM6.91666 6.75C7.24818 6.75 7.56612 6.6183 7.80054 6.38388C8.03496 6.14946 8.16666 5.83152 8.16666 5.5C8.16666 5.16848 8.03496 4.85054 7.80054 4.61612C7.56612 4.3817 7.24818 4.25 6.91666 4.25C6.58514 4.25 6.26719 4.3817 6.03277 4.61612C5.79835 4.85054 5.66666 5.16848 5.66666 5.5C5.66666 5.83152 5.79835 6.14946 6.03277 6.38388C6.26719 6.6183 6.58514 6.75 6.91666 6.75ZM6.91666 11.75C7.24818 11.75 7.56612 11.6183 7.80054 11.3839C8.03496 11.1495 8.16666 10.8315 8.16666 10.5C8.16666 10.1685 8.03496 9.85054 7.80054 9.61612C7.56612 9.3817 7.24818 9.25 6.91666 9.25C6.58514 9.25 6.26719 9.3817 6.03277 9.61612C5.79835 9.85054 5.66666 10.1685 5.66666 10.5C5.66666 10.8315 5.79835 11.1495 6.03277 11.3839C6.26719 11.6183 6.58514 11.75 6.91666 11.75Z" fill="#998060"/>
</svg>
